<svg xmlns="http://www.w3.org/2000/svg" xmlns:xlink="http://www.w3.org/1999/xlink" width="500" zoomAndPan="magnify" viewBox="0 0 375 374.999991" height="500" preserveAspectRatio="xMidYMid meet" version="1.0"><defs><g/><clipPath id="id1"><path d="M 143.136719 131 L 184 131 L 184 185 L 143.136719 185 Z M 143.136719 131 " clip-rule="nonzero"/></clipPath><clipPath id="id2"><path d="M 152 119.40625 L 184 119.40625 L 184 135 L 152 135 Z M 152 119.40625 " clip-rule="nonzero"/></clipPath><clipPath id="id3"><path d="M 187 119.40625 L 219 119.40625 L 219 135 L 187 135 Z M 187 119.40625 " clip-rule="nonzero"/></clipPath><clipPath id="id4"><path d="M 205 165 L 231.636719 165 L 231.636719 203.40625 L 205 203.40625 Z M 205 165 " clip-rule="nonzero"/></clipPath></defs><rect x="-37.5" width="450" fill="#ffffff" y="-37.499999" height="449.999989" fill-opacity="1"/><rect x="-37.5" width="450" fill="#ffffff" y="-37.499999" height="449.999989" fill-opacity="1"/><rect x="-37.5" width="450" fill="#ffffff" y="-37.499999" height="449.999989" fill-opacity="1"/><rect x="-37.5" width="450" fill="#ffffff" y="-37.499999" height="449.999989" fill-opacity="1"/><g clip-path="url(#id1)"><path fill="#ff1616" d="M 143.117188 131.867188 L 147.769531 178.136719 C 159.769531 177.457031 171.832031 179.433594 183.964844 184.367188 L 183.964844 138.898438 C 169.117188 133.332031 155.601562 131.253906 143.117188 131.867188 " fill-opacity="1" fill-rule="nonzero"/></g><g clip-path="url(#id2)"><path fill="#ff1616" d="M 153.257812 127.917969 C 163.199219 128.5625 173.484375 130.792969 183.964844 134.589844 L 183.964844 132.382812 C 173.890625 124.992188 162.542969 120.03125 152.816406 119.433594 L 153.257812 127.917969 " fill-opacity="1" fill-rule="nonzero"/></g><path fill="#ff1616" d="M 209.148438 165.121094 C 210.730469 164.164062 212.433594 163.734375 214.042969 163.421875 L 215.109375 163.191406 C 215.40625 163.121094 215.71875 163.070312 216.054688 163.015625 C 215.4375 160.664062 214.230469 158.394531 212.488281 156.371094 C 210.839844 154.453125 208.621094 153.15625 206.28125 151.777344 C 205.078125 151.074219 203.847656 150.359375 202.65625 149.519531 C 198.304688 146.496094 195.601562 141.863281 194.925781 136.335938 C 192.453125 137.082031 189.933594 137.945312 187.378906 138.902344 L 187.378906 184.371094 C 192.789062 182.167969 198.183594 180.5625 203.5625 179.519531 C 203.59375 179.347656 203.605469 179.183594 203.632812 179.007812 C 203.714844 178.359375 203.78125 177.699219 203.859375 177.023438 C 204.132812 174.402344 204.457031 171.429688 205.820312 168.730469 C 206.578125 167.246094 207.730469 165.984375 209.148438 165.121094 " fill-opacity="1" fill-rule="nonzero"/><path fill="#ff1616" d="M 204.96875 146.199219 C 206.039062 146.941406 207.148438 147.589844 208.324219 148.292969 C 210.851562 149.761719 213.476562 151.304688 215.570312 153.734375 C 217.949219 156.507812 219.535156 159.667969 220.207031 162.945312 C 220.777344 163.015625 221.34375 163.113281 221.882812 163.207031 L 222.25 163.273438 C 223.007812 163.40625 223.96875 163.59375 225.007812 163.90625 L 228.226562 131.867188 C 219.046875 131.421875 209.296875 132.421875 198.871094 135.203125 C 199.304688 139.863281 201.425781 143.738281 204.96875 146.199219 " fill-opacity="1" fill-rule="nonzero"/><g clip-path="url(#id3)"><path fill="#ff1616" d="M 218.527344 119.433594 C 208.800781 120.03125 197.453125 124.992188 187.382812 132.382812 L 187.382812 134.589844 C 197.859375 130.792969 208.148438 128.5625 218.089844 127.917969 L 218.527344 119.433594 " fill-opacity="1" fill-rule="nonzero"/></g><g clip-path="url(#id4)"><path fill="#ff1616" d="M 221.40625 180.429688 C 221.363281 181.847656 220.226562 182.722656 218.382812 182.8125 C 216.839844 182.898438 215.679688 182.179688 215.644531 180.808594 C 215.613281 179.429688 215.605469 178.039062 215.640625 176.660156 C 215.664062 175.300781 215.726562 173.945312 215.8125 172.589844 C 215.902344 171.1875 217.359375 170.328125 218.929688 170.460938 C 220.503906 170.597656 221.320312 171.375 221.402344 172.863281 C 221.40625 172.921875 221.410156 172.992188 221.410156 173.058594 C 221.429688 174.242188 221.417969 175.429688 221.417969 176.621094 C 221.417969 177.894531 221.445312 179.160156 221.40625 180.429688 Z M 230.734375 179.371094 C 230.3125 176.238281 230.265625 172.828125 228.804688 169.953125 C 227.40625 167.203125 224.496094 166.4375 221.683594 165.910156 C 221.589844 165.890625 221.496094 165.875 221.402344 165.855469 C 220.058594 165.617188 218.675781 165.425781 217.316406 165.566406 C 216.753906 165.625 216.199219 165.730469 215.640625 165.84375 C 215.285156 165.914062 214.933594 165.992188 214.582031 166.0625 C 213.195312 166.34375 211.773438 166.699219 210.554688 167.433594 C 209.558594 168.046875 208.765625 168.914062 208.238281 169.953125 C 206.777344 172.828125 206.730469 176.238281 206.304688 179.371094 C 205.804688 183.027344 205.460938 186.707031 205.460938 190.394531 C 205.460938 197.730469 211.289062 203.039062 218.523438 203.457031 C 225.753906 203.039062 231.582031 197.730469 231.582031 190.394531 C 231.582031 186.707031 231.238281 183.027344 230.734375 179.371094 " fill-opacity="1" fill-rule="nonzero"/></g><g fill="#ff1616" fill-opacity="1"><g transform="translate(96.210936, 232.9933)"><g><path d="M 12.015625 -23.09375 C 13.128906 -23.09375 14.191406 -22.757812 15.203125 -22.09375 C 16.222656 -21.425781 17.039062 -20.523438 17.65625 -19.390625 C 18.269531 -18.253906 18.578125 -17.015625 18.578125 -15.671875 C 18.578125 -14.347656 18.269531 -13.113281 17.65625 -11.96875 C 17.039062 -10.832031 16.222656 -9.925781 15.203125 -9.25 C 14.191406 -8.582031 13.128906 -8.25 12.015625 -8.25 L 6.265625 -8.25 L 6.265625 -2.015625 C 6.265625 -1.421875 6.085938 -0.9375 5.734375 -0.5625 C 5.390625 -0.1875 4.929688 0 4.359375 0 C 3.804688 0 3.351562 -0.191406 3 -0.578125 C 2.644531 -0.960938 2.46875 -1.441406 2.46875 -2.015625 L 2.46875 -21.09375 C 2.46875 -21.65625 2.660156 -22.128906 3.046875 -22.515625 C 3.429688 -22.898438 3.910156 -23.09375 4.484375 -23.09375 Z M 12.015625 -12.015625 C 12.429688 -12.015625 12.84375 -12.1875 13.25 -12.53125 C 13.65625 -12.882812 13.984375 -13.34375 14.234375 -13.90625 C 14.492188 -14.46875 14.625 -15.054688 14.625 -15.671875 C 14.625 -16.285156 14.492188 -16.875 14.234375 -17.4375 C 13.984375 -18 13.65625 -18.453125 13.25 -18.796875 C 12.84375 -19.140625 12.429688 -19.3125 12.015625 -19.3125 L 6.265625 -19.3125 L 6.265625 -12.015625 Z M 12.015625 -12.015625 "/></g></g></g><g fill="#ff1616" fill-opacity="1"><g transform="translate(116.109898, 232.9933)"><g><path d="M 19.109375 -8.8125 C 19.109375 -7.050781 18.710938 -5.472656 17.921875 -4.078125 C 17.128906 -2.679688 16.046875 -1.597656 14.671875 -0.828125 C 13.296875 -0.0546875 11.78125 0.328125 10.125 0.328125 C 8.457031 0.328125 6.941406 -0.0546875 5.578125 -0.828125 C 4.210938 -1.597656 3.132812 -2.679688 2.34375 -4.078125 C 1.550781 -5.472656 1.15625 -7.050781 1.15625 -8.8125 C 1.15625 -10.570312 1.550781 -12.148438 2.34375 -13.546875 C 3.132812 -14.941406 4.210938 -16.03125 5.578125 -16.8125 C 6.941406 -17.59375 8.457031 -17.984375 10.125 -17.984375 C 11.78125 -17.984375 13.296875 -17.59375 14.671875 -16.8125 C 16.046875 -16.03125 17.128906 -14.941406 17.921875 -13.546875 C 18.710938 -12.148438 19.109375 -10.570312 19.109375 -8.8125 Z M 15.140625 -8.8125 C 15.140625 -9.882812 14.914062 -10.84375 14.46875 -11.6875 C 14.019531 -12.539062 13.414062 -13.195312 12.65625 -13.65625 C 11.894531 -14.125 11.050781 -14.359375 10.125 -14.359375 C 9.207031 -14.359375 8.367188 -14.125 7.609375 -13.65625 C 6.847656 -13.195312 6.238281 -12.539062 5.78125 -11.6875 C 5.332031 -10.84375 5.109375 -9.882812 5.109375 -8.8125 C 5.109375 -7.726562 5.332031 -6.769531 5.78125 -5.9375 C 6.238281 -5.101562 6.847656 -4.453125 7.609375 -3.984375 C 8.367188 -3.523438 9.207031 -3.296875 10.125 -3.296875 C 11.050781 -3.296875 11.894531 -3.523438 12.65625 -3.984375 C 13.414062 -4.453125 14.019531 -5.101562 14.46875 -5.9375 C 14.914062 -6.769531 15.140625 -7.726562 15.140625 -8.8125 Z M 15.140625 -8.8125 "/></g></g></g><g fill="#ff1616" fill-opacity="1"><g transform="translate(136.371856, 232.9933)"><g><path d="M 5.875 -2.015625 C 5.875 -1.441406 5.6875 -0.960938 5.3125 -0.578125 C 4.9375 -0.191406 4.460938 0 3.890625 0 C 3.316406 0 2.84375 -0.191406 2.46875 -0.578125 C 2.09375 -0.960938 1.90625 -1.441406 1.90625 -2.015625 L 1.90625 -15.640625 C 1.90625 -16.210938 2.09375 -16.691406 2.46875 -17.078125 C 2.84375 -17.460938 3.316406 -17.65625 3.890625 -17.65625 C 4.460938 -17.65625 4.9375 -17.460938 5.3125 -17.078125 C 5.6875 -16.691406 5.875 -16.210938 5.875 -15.640625 Z M 3.859375 -19.796875 C 3.109375 -19.796875 2.578125 -19.914062 2.265625 -20.15625 C 1.960938 -20.40625 1.8125 -20.835938 1.8125 -21.453125 L 1.8125 -22.078125 C 1.8125 -22.691406 1.976562 -23.117188 2.3125 -23.359375 C 2.644531 -23.609375 3.171875 -23.734375 3.890625 -23.734375 C 4.660156 -23.734375 5.195312 -23.609375 5.5 -23.359375 C 5.8125 -23.117188 5.96875 -22.691406 5.96875 -22.078125 L 5.96875 -21.453125 C 5.96875 -20.816406 5.804688 -20.378906 5.484375 -20.140625 C 5.171875 -19.910156 4.628906 -19.796875 3.859375 -19.796875 Z M 3.859375 -19.796875 "/></g></g></g><g fill="#ff1616" fill-opacity="1"><g transform="translate(144.159834, 232.9933)"><g><path d="M 11.578125 -17.984375 C 13.828125 -17.984375 15.378906 -17.316406 16.234375 -15.984375 C 17.085938 -14.648438 17.515625 -12.8125 17.515625 -10.46875 L 17.515625 -2.015625 C 17.515625 -1.441406 17.328125 -0.960938 16.953125 -0.578125 C 16.585938 -0.191406 16.117188 0 15.546875 0 C 14.972656 0 14.5 -0.191406 14.125 -0.578125 C 13.75 -0.960938 13.5625 -1.441406 13.5625 -2.015625 L 13.5625 -10.46875 C 13.5625 -11.675781 13.304688 -12.625 12.796875 -13.3125 C 12.296875 -14.007812 11.429688 -14.359375 10.203125 -14.359375 C 8.921875 -14.359375 7.914062 -13.988281 7.1875 -13.25 C 6.46875 -12.507812 6.109375 -11.582031 6.109375 -10.46875 L 6.109375 -2.015625 C 6.109375 -1.441406 5.921875 -0.960938 5.546875 -0.578125 C 5.171875 -0.191406 4.695312 0 4.125 0 C 3.550781 0 3.078125 -0.191406 2.703125 -0.578125 C 2.328125 -0.960938 2.140625 -1.441406 2.140625 -2.015625 L 2.140625 -15.640625 C 2.140625 -16.210938 2.328125 -16.691406 2.703125 -17.078125 C 3.078125 -17.460938 3.550781 -17.65625 4.125 -17.65625 C 4.695312 -17.65625 5.171875 -17.460938 5.546875 -17.078125 C 5.921875 -16.691406 6.109375 -16.210938 6.109375 -15.640625 L 6.109375 -15.078125 C 6.703125 -15.867188 7.472656 -16.550781 8.421875 -17.125 C 9.378906 -17.695312 10.429688 -17.984375 11.578125 -17.984375 Z M 11.578125 -17.984375 "/></g></g></g><g fill="#ff1616" fill-opacity="1"><g transform="translate(163.827798, 232.9933)"><g><path d="M 10.65625 -3.734375 C 10.96875 -3.734375 11.25 -3.582031 11.5 -3.28125 C 11.75 -2.988281 11.875 -2.597656 11.875 -2.109375 C 11.875 -1.515625 11.550781 -1.015625 10.90625 -0.609375 C 10.257812 -0.203125 9.53125 0 8.71875 0 C 7.351562 0 6.203125 -0.289062 5.265625 -0.875 C 4.328125 -1.457031 3.859375 -2.695312 3.859375 -4.59375 L 3.859375 -13.6875 L 2.34375 -13.6875 C 1.8125 -13.6875 1.367188 -13.863281 1.015625 -14.21875 C 0.671875 -14.570312 0.5 -15.015625 0.5 -15.546875 C 0.5 -16.046875 0.671875 -16.46875 1.015625 -16.8125 C 1.367188 -17.15625 1.8125 -17.328125 2.34375 -17.328125 L 3.859375 -17.328125 L 3.859375 -19.4375 C 3.859375 -20.007812 4.050781 -20.488281 4.4375 -20.875 C 4.820312 -21.257812 5.300781 -21.453125 5.875 -21.453125 C 6.425781 -21.453125 6.890625 -21.257812 7.265625 -20.875 C 7.640625 -20.488281 7.828125 -20.007812 7.828125 -19.4375 L 7.828125 -17.328125 L 10.15625 -17.328125 C 10.6875 -17.328125 11.128906 -17.148438 11.484375 -16.796875 C 11.835938 -16.441406 12.015625 -16.003906 12.015625 -15.484375 C 12.015625 -14.972656 11.835938 -14.546875 11.484375 -14.203125 C 11.128906 -13.859375 10.6875 -13.6875 10.15625 -13.6875 L 7.828125 -13.6875 L 7.828125 -4.75 C 7.828125 -4.289062 7.945312 -3.957031 8.1875 -3.75 C 8.425781 -3.539062 8.753906 -3.4375 9.171875 -3.4375 C 9.347656 -3.4375 9.59375 -3.476562 9.90625 -3.5625 C 10.164062 -3.675781 10.414062 -3.734375 10.65625 -3.734375 Z M 10.65625 -3.734375 "/></g></g></g><g fill="#ff1616" fill-opacity="1"><g transform="translate(177.324764, 232.9933)"><g/></g></g><g fill="#ff1616" fill-opacity="1"><g transform="translate(186.564746, 232.9933)"><g><path d="M 15.21875 -3.859375 C 15.789062 -3.859375 16.265625 -3.675781 16.640625 -3.3125 C 17.023438 -2.945312 17.21875 -2.476562 17.21875 -1.90625 C 17.21875 -1.363281 17.023438 -0.910156 16.640625 -0.546875 C 16.265625 -0.179688 15.789062 0 15.21875 0 L 4.484375 0 C 3.910156 0 3.429688 -0.191406 3.046875 -0.578125 C 2.660156 -0.960938 2.46875 -1.441406 2.46875 -2.015625 L 2.46875 -21.09375 C 2.46875 -21.65625 2.664062 -22.128906 3.0625 -22.515625 C 3.457031 -22.898438 3.96875 -23.09375 4.59375 -23.09375 C 5.132812 -23.09375 5.601562 -22.898438 6 -22.515625 C 6.394531 -22.128906 6.59375 -21.65625 6.59375 -21.09375 L 6.59375 -3.859375 Z M 15.21875 -3.859375 "/></g></g></g><g fill="#ff1616" fill-opacity="1"><g transform="translate(205.110708, 232.9933)"><g><path d="M 17.984375 -9.234375 C 17.960938 -8.710938 17.753906 -8.285156 17.359375 -7.953125 C 16.960938 -7.617188 16.5 -7.453125 15.96875 -7.453125 L 5.078125 -7.453125 C 5.347656 -6.160156 5.953125 -5.144531 6.890625 -4.40625 C 7.835938 -3.664062 8.90625 -3.296875 10.09375 -3.296875 C 11 -3.296875 11.703125 -3.378906 12.203125 -3.546875 C 12.710938 -3.710938 13.113281 -3.890625 13.40625 -4.078125 C 13.707031 -4.265625 13.914062 -4.390625 14.03125 -4.453125 C 14.425781 -4.648438 14.796875 -4.75 15.140625 -4.75 C 15.609375 -4.75 16.003906 -4.582031 16.328125 -4.25 C 16.660156 -3.925781 16.828125 -3.546875 16.828125 -3.109375 C 16.828125 -2.515625 16.519531 -1.972656 15.90625 -1.484375 C 15.289062 -0.972656 14.460938 -0.539062 13.421875 -0.1875 C 12.390625 0.15625 11.347656 0.328125 10.296875 0.328125 C 8.453125 0.328125 6.84375 -0.0546875 5.46875 -0.828125 C 4.09375 -1.597656 3.03125 -2.65625 2.28125 -4 C 1.53125 -5.351562 1.15625 -6.878906 1.15625 -8.578125 C 1.15625 -10.472656 1.550781 -12.132812 2.34375 -13.5625 C 3.132812 -14.988281 4.175781 -16.082031 5.46875 -16.84375 C 6.769531 -17.601562 8.160156 -17.984375 9.640625 -17.984375 C 11.085938 -17.984375 12.453125 -17.585938 13.734375 -16.796875 C 15.023438 -16.003906 16.054688 -14.9375 16.828125 -13.59375 C 17.597656 -12.25 17.984375 -10.796875 17.984375 -9.234375 Z M 9.640625 -14.359375 C 7.085938 -14.359375 5.578125 -13.160156 5.109375 -10.765625 L 13.765625 -10.765625 L 13.765625 -10.984375 C 13.671875 -11.910156 13.21875 -12.703125 12.40625 -13.359375 C 11.59375 -14.023438 10.671875 -14.359375 9.640625 -14.359375 Z M 9.640625 -14.359375 "/></g></g></g><g fill="#ff1616" fill-opacity="1"><g transform="translate(224.250664, 232.9933)"><g><path d="M 16.4375 -17.984375 C 17.007812 -17.984375 17.476562 -17.796875 17.84375 -17.421875 C 18.21875 -17.046875 18.40625 -16.5625 18.40625 -15.96875 L 18.40625 -2.015625 C 18.40625 -1.441406 18.21875 -0.960938 17.84375 -0.578125 C 17.476562 -0.191406 17.007812 0 16.4375 0 C 15.863281 0 15.394531 -0.1875 15.03125 -0.5625 C 14.664062 -0.9375 14.472656 -1.410156 14.453125 -1.984375 C 13.898438 -1.335938 13.15625 -0.789062 12.21875 -0.34375 C 11.289062 0.101562 10.304688 0.328125 9.265625 0.328125 C 7.753906 0.328125 6.378906 -0.0625 5.140625 -0.84375 C 3.910156 -1.625 2.9375 -2.707031 2.21875 -4.09375 C 1.507812 -5.476562 1.15625 -7.050781 1.15625 -8.8125 C 1.15625 -10.570312 1.503906 -12.148438 2.203125 -13.546875 C 2.910156 -14.941406 3.875 -16.03125 5.09375 -16.8125 C 6.320312 -17.59375 7.671875 -17.984375 9.140625 -17.984375 C 10.191406 -17.984375 11.179688 -17.789062 12.109375 -17.40625 C 13.035156 -17.019531 13.816406 -16.53125 14.453125 -15.9375 L 14.453125 -15.96875 C 14.453125 -16.539062 14.640625 -17.019531 15.015625 -17.40625 C 15.390625 -17.789062 15.863281 -17.984375 16.4375 -17.984375 Z M 9.765625 -3.296875 C 11.191406 -3.296875 12.359375 -3.816406 13.265625 -4.859375 C 14.171875 -5.910156 14.625 -7.226562 14.625 -8.8125 C 14.625 -10.394531 14.171875 -11.710938 13.265625 -12.765625 C 12.359375 -13.828125 11.191406 -14.359375 9.765625 -14.359375 C 8.359375 -14.359375 7.203125 -13.828125 6.296875 -12.765625 C 5.398438 -11.710938 4.953125 -10.394531 4.953125 -8.8125 C 4.953125 -7.226562 5.394531 -5.910156 6.28125 -4.859375 C 7.175781 -3.816406 8.335938 -3.296875 9.765625 -3.296875 Z M 9.765625 -3.296875 "/></g></g></g><g fill="#ff1616" fill-opacity="1"><g transform="translate(244.809619, 232.9933)"><g><path d="M 11.3125 -17.984375 C 11.976562 -17.984375 12.535156 -17.796875 12.984375 -17.421875 C 13.429688 -17.046875 13.65625 -16.609375 13.65625 -16.109375 C 13.65625 -15.421875 13.476562 -14.90625 13.125 -14.5625 C 12.78125 -14.226562 12.363281 -14.0625 11.875 -14.0625 C 11.550781 -14.0625 11.179688 -14.132812 10.765625 -14.28125 C 10.691406 -14.3125 10.539062 -14.359375 10.3125 -14.421875 C 10.082031 -14.484375 9.832031 -14.515625 9.5625 -14.515625 C 9 -14.515625 8.453125 -14.335938 7.921875 -13.984375 C 7.390625 -13.640625 6.953125 -13.109375 6.609375 -12.390625 C 6.273438 -11.671875 6.109375 -10.816406 6.109375 -9.828125 L 6.109375 -2.015625 C 6.109375 -1.441406 5.921875 -0.960938 5.546875 -0.578125 C 5.171875 -0.191406 4.695312 0 4.125 0 C 3.550781 0 3.078125 -0.191406 2.703125 -0.578125 C 2.328125 -0.960938 2.140625 -1.441406 2.140625 -2.015625 L 2.140625 -15.640625 C 2.140625 -16.210938 2.328125 -16.691406 2.703125 -17.078125 C 3.078125 -17.460938 3.550781 -17.65625 4.125 -17.65625 C 4.695312 -17.65625 5.171875 -17.460938 5.546875 -17.078125 C 5.921875 -16.691406 6.109375 -16.210938 6.109375 -15.640625 L 6.109375 -15.21875 C 6.609375 -16.113281 7.332031 -16.796875 8.28125 -17.265625 C 9.226562 -17.742188 10.238281 -17.984375 11.3125 -17.984375 Z M 11.3125 -17.984375 "/></g></g></g><g fill="#ff1616" fill-opacity="1"><g transform="translate(259.13159, 232.9933)"><g><path d="M 11.578125 -17.984375 C 13.828125 -17.984375 15.378906 -17.316406 16.234375 -15.984375 C 17.085938 -14.648438 17.515625 -12.8125 17.515625 -10.46875 L 17.515625 -2.015625 C 17.515625 -1.441406 17.328125 -0.960938 16.953125 -0.578125 C 16.585938 -0.191406 16.117188 0 15.546875 0 C 14.972656 0 14.5 -0.191406 14.125 -0.578125 C 13.75 -0.960938 13.5625 -1.441406 13.5625 -2.015625 L 13.5625 -10.46875 C 13.5625 -11.675781 13.304688 -12.625 12.796875 -13.3125 C 12.296875 -14.007812 11.429688 -14.359375 10.203125 -14.359375 C 8.921875 -14.359375 7.914062 -13.988281 7.1875 -13.25 C 6.46875 -12.507812 6.109375 -11.582031 6.109375 -10.46875 L 6.109375 -2.015625 C 6.109375 -1.441406 5.921875 -0.960938 5.546875 -0.578125 C 5.171875 -0.191406 4.695312 0 4.125 0 C 3.550781 0 3.078125 -0.191406 2.703125 -0.578125 C 2.328125 -0.960938 2.140625 -1.441406 2.140625 -2.015625 L 2.140625 -15.640625 C 2.140625 -16.210938 2.328125 -16.691406 2.703125 -17.078125 C 3.078125 -17.460938 3.550781 -17.65625 4.125 -17.65625 C 4.695312 -17.65625 5.171875 -17.460938 5.546875 -17.078125 C 5.921875 -16.691406 6.109375 -16.210938 6.109375 -15.640625 L 6.109375 -15.078125 C 6.703125 -15.867188 7.472656 -16.550781 8.421875 -17.125 C 9.378906 -17.695312 10.429688 -17.984375 11.578125 -17.984375 Z M 11.578125 -17.984375 "/></g></g></g><g fill="#000000" fill-opacity="1"><g transform="translate(135.855632, 253.143264)"><g><path d="M 9.328125 -4.65625 C 9.328125 -3.164062 8.953125 -1.992188 8.203125 -1.140625 C 7.453125 -0.296875 6.410156 0.125 5.078125 0.125 C 3.703125 0.125 2.644531 -0.289062 1.90625 -1.125 C 1.164062 -1.957031 0.796875 -3.140625 0.796875 -4.671875 C 0.796875 -6.179688 1.164062 -7.347656 1.90625 -8.171875 C 2.65625 -9.003906 3.710938 -9.421875 5.078125 -9.421875 C 6.410156 -9.421875 7.453125 -9 8.203125 -8.15625 C 8.953125 -7.3125 9.328125 -6.144531 9.328125 -4.65625 Z M 1.9375 -4.65625 C 1.9375 -3.394531 2.203125 -2.4375 2.734375 -1.78125 C 3.273438 -1.132812 4.054688 -0.8125 5.078125 -0.8125 C 6.097656 -0.8125 6.867188 -1.132812 7.390625 -1.78125 C 7.921875 -2.4375 8.1875 -3.394531 8.1875 -4.65625 C 8.1875 -5.90625 7.925781 -6.851562 7.40625 -7.5 C 6.882812 -8.144531 6.109375 -8.46875 5.078125 -8.46875 C 4.054688 -8.46875 3.273438 -8.140625 2.734375 -7.484375 C 2.203125 -6.835938 1.9375 -5.894531 1.9375 -4.65625 Z M 1.9375 -4.65625 "/></g></g></g><g fill="#000000" fill-opacity="1"><g transform="translate(147.407128, 253.143264)"><g><path d="M 5.875 0 L 5.875 -4.5 C 5.875 -5.0625 5.742188 -5.484375 5.484375 -5.765625 C 5.234375 -6.046875 4.832031 -6.1875 4.28125 -6.1875 C 3.550781 -6.1875 3.015625 -5.988281 2.671875 -5.59375 C 2.335938 -5.207031 2.171875 -4.5625 2.171875 -3.65625 L 2.171875 0 L 1.125 0 L 1.125 -6.953125 L 1.96875 -6.953125 L 2.140625 -6 L 2.203125 -6 C 2.410156 -6.34375 2.707031 -6.609375 3.09375 -6.796875 C 3.488281 -6.984375 3.925781 -7.078125 4.40625 -7.078125 C 5.238281 -7.078125 5.867188 -6.875 6.296875 -6.46875 C 6.722656 -6.070312 6.9375 -5.425781 6.9375 -4.53125 L 6.9375 0 Z M 5.875 0 "/></g></g></g><g fill="#000000" fill-opacity="1"><g transform="translate(156.813762, 253.143264)"><g><path d="M 2.171875 0 L 1.125 0 L 1.125 -9.875 L 2.171875 -9.875 Z M 2.171875 0 "/></g></g></g><g fill="#000000" fill-opacity="1"><g transform="translate(161.530882, 253.143264)"><g><path d="M 2.171875 0 L 1.125 0 L 1.125 -6.953125 L 2.171875 -6.953125 Z M 1.03125 -8.84375 C 1.03125 -9.082031 1.085938 -9.257812 1.203125 -9.375 C 1.328125 -9.488281 1.476562 -9.546875 1.65625 -9.546875 C 1.820312 -9.546875 1.960938 -9.488281 2.078125 -9.375 C 2.203125 -9.257812 2.265625 -9.082031 2.265625 -8.84375 C 2.265625 -8.601562 2.203125 -8.425781 2.078125 -8.3125 C 1.960938 -8.195312 1.820312 -8.140625 1.65625 -8.140625 C 1.476562 -8.140625 1.328125 -8.195312 1.203125 -8.3125 C 1.085938 -8.425781 1.03125 -8.601562 1.03125 -8.84375 Z M 1.03125 -8.84375 "/></g></g></g><g fill="#000000" fill-opacity="1"><g transform="translate(166.248002, 253.143264)"><g><path d="M 5.875 0 L 5.875 -4.5 C 5.875 -5.0625 5.742188 -5.484375 5.484375 -5.765625 C 5.234375 -6.046875 4.832031 -6.1875 4.28125 -6.1875 C 3.550781 -6.1875 3.015625 -5.988281 2.671875 -5.59375 C 2.335938 -5.207031 2.171875 -4.5625 2.171875 -3.65625 L 2.171875 0 L 1.125 0 L 1.125 -6.953125 L 1.96875 -6.953125 L 2.140625 -6 L 2.203125 -6 C 2.410156 -6.34375 2.707031 -6.609375 3.09375 -6.796875 C 3.488281 -6.984375 3.925781 -7.078125 4.40625 -7.078125 C 5.238281 -7.078125 5.867188 -6.875 6.296875 -6.46875 C 6.722656 -6.070312 6.9375 -5.425781 6.9375 -4.53125 L 6.9375 0 Z M 5.875 0 "/></g></g></g><g fill="#000000" fill-opacity="1"><g transform="translate(175.654635, 253.143264)"><g><path d="M 4.0625 0.125 C 3.03125 0.125 2.21875 -0.1875 1.625 -0.8125 C 1.03125 -1.4375 0.734375 -2.304688 0.734375 -3.421875 C 0.734375 -4.546875 1.007812 -5.4375 1.5625 -6.09375 C 2.113281 -6.75 2.851562 -7.078125 3.78125 -7.078125 C 4.65625 -7.078125 5.34375 -6.789062 5.84375 -6.21875 C 6.351562 -5.644531 6.609375 -4.890625 6.609375 -3.953125 L 6.609375 -3.28125 L 1.828125 -3.28125 C 1.847656 -2.46875 2.050781 -1.847656 2.4375 -1.421875 C 2.832031 -1.003906 3.382812 -0.796875 4.09375 -0.796875 C 4.84375 -0.796875 5.582031 -0.953125 6.3125 -1.265625 L 6.3125 -0.328125 C 5.9375 -0.160156 5.582031 -0.046875 5.25 0.015625 C 4.925781 0.0859375 4.53125 0.125 4.0625 0.125 Z M 3.765625 -6.203125 C 3.210938 -6.203125 2.769531 -6.019531 2.4375 -5.65625 C 2.101562 -5.289062 1.90625 -4.785156 1.84375 -4.140625 L 5.484375 -4.140625 C 5.484375 -4.804688 5.332031 -5.316406 5.03125 -5.671875 C 4.738281 -6.023438 4.316406 -6.203125 3.765625 -6.203125 Z M 3.765625 -6.203125 "/></g></g></g><g fill="#000000" fill-opacity="1"><g transform="translate(184.375928, 253.143264)"><g/></g></g><g fill="#000000" fill-opacity="1"><g transform="translate(189.181886, 253.143264)"><g><path d="M 5.25 -8.453125 C 4.226562 -8.453125 3.421875 -8.109375 2.828125 -7.421875 C 2.242188 -6.742188 1.953125 -5.816406 1.953125 -4.640625 C 1.953125 -3.421875 2.234375 -2.476562 2.796875 -1.8125 C 3.367188 -1.15625 4.179688 -0.828125 5.234375 -0.828125 C 5.878906 -0.828125 6.617188 -0.945312 7.453125 -1.1875 L 7.453125 -0.234375 C 6.804688 0.00390625 6.015625 0.125 5.078125 0.125 C 3.703125 0.125 2.644531 -0.285156 1.90625 -1.109375 C 1.164062 -1.941406 0.796875 -3.125 0.796875 -4.65625 C 0.796875 -5.613281 0.972656 -6.453125 1.328125 -7.171875 C 1.679688 -7.890625 2.195312 -8.441406 2.875 -8.828125 C 3.550781 -9.210938 4.347656 -9.40625 5.265625 -9.40625 C 6.234375 -9.40625 7.082031 -9.226562 7.8125 -8.875 L 7.359375 -7.953125 C 6.648438 -8.285156 5.945312 -8.453125 5.25 -8.453125 Z M 5.25 -8.453125 "/></g></g></g><g fill="#000000" fill-opacity="1"><g transform="translate(198.810618, 253.143264)"><g><path d="M 7.125 -3.484375 C 7.125 -2.347656 6.835938 -1.460938 6.265625 -0.828125 C 5.691406 -0.191406 4.898438 0.125 3.890625 0.125 C 3.273438 0.125 2.722656 -0.0195312 2.234375 -0.3125 C 1.753906 -0.601562 1.382812 -1.019531 1.125 -1.5625 C 0.863281 -2.113281 0.734375 -2.753906 0.734375 -3.484375 C 0.734375 -4.617188 1.015625 -5.5 1.578125 -6.125 C 2.148438 -6.757812 2.9375 -7.078125 3.9375 -7.078125 C 4.914062 -7.078125 5.691406 -6.753906 6.265625 -6.109375 C 6.835938 -5.460938 7.125 -4.585938 7.125 -3.484375 Z M 1.828125 -3.484375 C 1.828125 -2.597656 2.003906 -1.921875 2.359375 -1.453125 C 2.710938 -0.984375 3.234375 -0.75 3.921875 -0.75 C 4.609375 -0.75 5.128906 -0.976562 5.484375 -1.4375 C 5.847656 -1.90625 6.03125 -2.585938 6.03125 -3.484375 C 6.03125 -4.367188 5.847656 -5.039062 5.484375 -5.5 C 5.128906 -5.957031 4.601562 -6.1875 3.90625 -6.1875 C 3.21875 -6.1875 2.695312 -5.957031 2.34375 -5.5 C 2 -5.050781 1.828125 -4.378906 1.828125 -3.484375 Z M 1.828125 -3.484375 "/></g></g></g><g fill="#000000" fill-opacity="1"><g transform="translate(208.090334, 253.143264)"><g><path d="M 2.109375 -6.953125 L 2.109375 -2.4375 C 2.109375 -1.875 2.234375 -1.453125 2.484375 -1.171875 C 2.742188 -0.890625 3.148438 -0.75 3.703125 -0.75 C 4.429688 -0.75 4.960938 -0.945312 5.296875 -1.34375 C 5.640625 -1.75 5.8125 -2.398438 5.8125 -3.296875 L 5.8125 -6.953125 L 6.859375 -6.953125 L 6.859375 0 L 6 0 L 5.84375 -0.9375 L 5.78125 -0.9375 C 5.5625 -0.59375 5.257812 -0.328125 4.875 -0.140625 C 4.5 0.0351562 4.066406 0.125 3.578125 0.125 C 2.722656 0.125 2.085938 -0.0703125 1.671875 -0.46875 C 1.253906 -0.875 1.046875 -1.519531 1.046875 -2.40625 L 1.046875 -6.953125 Z M 2.109375 -6.953125 "/></g></g></g><g fill="#000000" fill-opacity="1"><g transform="translate(217.496965, 253.143264)"><g><path d="M 4.296875 -7.078125 C 4.597656 -7.078125 4.875 -7.054688 5.125 -7.015625 L 4.984375 -6.03125 C 4.691406 -6.09375 4.4375 -6.125 4.21875 -6.125 C 3.65625 -6.125 3.171875 -5.894531 2.765625 -5.4375 C 2.367188 -4.976562 2.171875 -4.410156 2.171875 -3.734375 L 2.171875 0 L 1.125 0 L 1.125 -6.953125 L 1.984375 -6.953125 L 2.109375 -5.671875 L 2.15625 -5.671875 C 2.414062 -6.117188 2.726562 -6.460938 3.09375 -6.703125 C 3.457031 -6.953125 3.859375 -7.078125 4.296875 -7.078125 Z M 4.296875 -7.078125 "/></g></g></g><g fill="#000000" fill-opacity="1"><g transform="translate(224.23203, 253.143264)"><g><path d="M 5.609375 -1.890625 C 5.609375 -1.242188 5.363281 -0.742188 4.875 -0.390625 C 4.394531 -0.046875 3.71875 0.125 2.84375 0.125 C 1.925781 0.125 1.207031 -0.0195312 0.6875 -0.3125 L 0.6875 -1.28125 C 1.019531 -1.113281 1.378906 -0.984375 1.765625 -0.890625 C 2.148438 -0.796875 2.519531 -0.75 2.875 -0.75 C 3.425781 -0.75 3.847656 -0.832031 4.140625 -1 C 4.441406 -1.175781 4.59375 -1.445312 4.59375 -1.8125 C 4.59375 -2.082031 4.472656 -2.3125 4.234375 -2.5 C 4.003906 -2.695312 3.546875 -2.925781 2.859375 -3.1875 C 2.210938 -3.425781 1.753906 -3.632812 1.484375 -3.8125 C 1.210938 -4 1.007812 -4.207031 0.875 -4.4375 C 0.738281 -4.664062 0.671875 -4.9375 0.671875 -5.25 C 0.671875 -5.8125 0.898438 -6.253906 1.359375 -6.578125 C 1.828125 -6.910156 2.460938 -7.078125 3.265625 -7.078125 C 4.015625 -7.078125 4.742188 -6.925781 5.453125 -6.625 L 5.078125 -5.765625 C 4.378906 -6.054688 3.75 -6.203125 3.1875 -6.203125 C 2.6875 -6.203125 2.304688 -6.125 2.046875 -5.96875 C 1.796875 -5.8125 1.671875 -5.59375 1.671875 -5.3125 C 1.671875 -5.132812 1.71875 -4.976562 1.8125 -4.84375 C 1.914062 -4.707031 2.070312 -4.582031 2.28125 -4.46875 C 2.488281 -4.351562 2.894531 -4.179688 3.5 -3.953125 C 4.320312 -3.648438 4.878906 -3.347656 5.171875 -3.046875 C 5.460938 -2.742188 5.609375 -2.359375 5.609375 -1.890625 Z M 5.609375 -1.890625 "/></g></g></g><g fill="#000000" fill-opacity="1"><g transform="translate(231.861851, 253.143264)"><g><path d="M 4.0625 0.125 C 3.03125 0.125 2.21875 -0.1875 1.625 -0.8125 C 1.03125 -1.4375 0.734375 -2.304688 0.734375 -3.421875 C 0.734375 -4.546875 1.007812 -5.4375 1.5625 -6.09375 C 2.113281 -6.75 2.851562 -7.078125 3.78125 -7.078125 C 4.65625 -7.078125 5.34375 -6.789062 5.84375 -6.21875 C 6.351562 -5.644531 6.609375 -4.890625 6.609375 -3.953125 L 6.609375 -3.28125 L 1.828125 -3.28125 C 1.847656 -2.46875 2.050781 -1.847656 2.4375 -1.421875 C 2.832031 -1.003906 3.382812 -0.796875 4.09375 -0.796875 C 4.84375 -0.796875 5.582031 -0.953125 6.3125 -1.265625 L 6.3125 -0.328125 C 5.9375 -0.160156 5.582031 -0.046875 5.25 0.015625 C 4.925781 0.0859375 4.53125 0.125 4.0625 0.125 Z M 3.765625 -6.203125 C 3.210938 -6.203125 2.769531 -6.019531 2.4375 -5.65625 C 2.101562 -5.289062 1.90625 -4.785156 1.84375 -4.140625 L 5.484375 -4.140625 C 5.484375 -4.804688 5.332031 -5.316406 5.03125 -5.671875 C 4.738281 -6.023438 4.316406 -6.203125 3.765625 -6.203125 Z M 3.765625 -6.203125 "/></g></g></g></svg>